<?xml version="1.0" encoding="UTF-8"?>
<svg width="120px" height="42px" viewBox="0 0 120 42" version="1.1" xmlns="http://www.w3.org/2000/svg" xmlns:xlink="http://www.w3.org/1999/xlink">
    <!-- Generator: Sketch 44.1 (41455) - http://www.bohemiancoding.com/sketch -->
    <title>Group 6</title>
    <desc>Created with Sketch.</desc>
    <defs></defs>
    <g id="Page-1" stroke="none" stroke-width="1" fill="none" fill-rule="evenodd">
        <g id="Group-6" fill-rule="nonzero" fill="#FFFFFF">
            <path d="M2.37802198,10.7164835 L14.8131868,10.7164835 C16.0124337,10.7164835 16.9846154,9.74430183 16.9846154,8.54505495 C16.9846154,7.34580806 16.0124337,6.37362637 14.8131868,6.37362637 L2.37802198,6.37362637 C1.17877509,6.37362637 0.206593407,7.34580806 0.206593407,8.54505495 C0.206593407,9.74430183 1.17877509,10.7164835 2.37802198,10.7164835 L2.37802198,10.7164835 Z" id="Shape"></path>
            <path d="M7.47252747,4.53626374 L25.7318681,4.53626374 C26.931115,4.53626374 27.9032967,3.56408205 27.9032967,2.36483516 C27.9032967,1.16558828 26.931115,0.193406593 25.7318681,0.193406593 L7.47252747,0.193406593 C6.27328059,0.193406593 5.3010989,1.16558828 5.3010989,2.36483516 C5.3010989,3.56408205 6.27328059,4.53626374 7.47252747,4.53626374 Z" id="Shape"></path>
            <circle id="Oval" cx="30.843956" cy="8.54505495" r="2.17142857"></circle>
            <g id="Group-5" transform="translate(0.000000, 7.032967)">
                <path d="M25.7406593,30.2417582 L7.47252747,30.2417582 C6.27328059,30.2417582 5.3010989,31.2139399 5.3010989,32.4131868 C5.3010989,33.6124337 6.27328059,34.5846154 7.47252747,34.5846154 L25.7318681,34.5846154 C26.931115,34.5846154 27.9032967,33.6124337 27.9032967,32.4131868 C27.9032967,31.2139399 26.931115,30.2417582 25.7318681,30.2417582 L25.7406593,30.2417582 Z" id="Shape"></path>
                <path d="M30.8483516,24.0615385 L18.4131868,24.0615385 C17.2139399,24.0615385 16.2417582,25.0337201 16.2417582,26.232967 C16.2417582,27.4322139 17.2139399,28.4043956 18.4131868,28.4043956 L30.8483516,28.4043956 C32.0475985,28.4043956 33.0197802,27.4322139 33.0197802,26.232967 C33.0197802,25.0337201 32.0475985,24.0615385 30.8483516,24.0615385 Z" id="Shape"></path>
                <path d="M30.843956,17.8813187 L22.6637363,17.8813187 C21.4644894,17.8813187 20.4923077,18.8535004 20.4923077,20.0527473 C20.4923077,21.2519941 21.4644894,22.2241758 22.6637363,22.2241758 L30.843956,22.2241758 C32.0432029,22.2241758 33.0153846,21.2519941 33.0153846,20.0527473 C33.0153846,18.8535004 32.0432029,17.8813187 30.843956,17.8813187 L30.843956,17.8813187 Z" id="Shape"></path>
                <path d="M2.38241758,9.86373626 L10.5494505,9.86373626 C11.7486974,9.86373626 12.7208791,8.89155458 12.7208791,7.69230769 C12.7208791,6.49306081 11.7486974,5.52087912 10.5494505,5.52087912 L2.38241758,5.52087912 C1.1831707,5.52087912 0.210989011,6.49306081 0.210989011,7.69230769 C0.210989011,8.89155458 1.1831707,9.86373626 2.38241758,9.86373626 L2.38241758,9.86373626 Z" id="Shape"></path>
                <path d="M12.5230769,11.7010989 C11.32383,11.7010989 10.3516484,12.6732806 10.3516484,13.8725275 C10.3516484,15.0717744 11.32383,16.043956 12.5230769,16.043956 L20.7032967,16.043956 C21.9025436,16.043956 22.8747253,15.0717744 22.8747253,13.8725275 C22.8747253,12.6732806 21.9025436,11.7010989 20.7032967,11.7010989 L12.5230769,11.7010989 Z" id="Shape"></path>
                <circle id="Oval" cx="2.38241758" cy="26.232967" r="2.17142857"></circle>
                <path d="M47.7450549,10.7164835 C47.5108292,10.8870659 47.2491932,11.0163973 46.9714286,11.0989011 C46.7022035,11.1816778 46.422317,11.2246233 46.1406593,11.2263736 C45.6500239,11.2253068 45.1655174,11.1173054 44.7208791,10.9098901 C44.259543,10.6981073 43.8678027,10.3597169 43.5912088,9.93406593 L42.2505495,11.0901099 C42.6650394,11.661531 43.2381998,12.0986613 43.8989011,12.3472527 C44.598928,12.6217324 45.3448009,12.7604647 46.0967033,12.756044 C46.6504796,12.7594939 47.2011724,12.6734018 47.7274725,12.5010989 C48.2097291,12.3446238 48.6574118,12.096906 49.0461538,11.7714286 C49.4194942,11.4473502 49.7192335,11.0471983 49.9252747,10.5978022 C50.1512385,10.1075511 50.2639152,9.57271262 50.2549451,9.03296703 C50.2899166,8.43115054 50.1362576,7.83341667 49.8153846,7.32307692 C49.5285305,6.91736654 49.1545674,6.58094998 48.7208791,6.33846154 C48.2702564,6.09049266 47.7903235,5.89999624 47.2923077,5.77142857 C46.8082572,5.65179162 46.3313144,5.50503999 45.8637363,5.33186813 C45.4605154,5.18119804 45.0892273,4.95603939 44.7692308,4.66813187 C44.4603531,4.35859501 44.3001272,3.93079173 44.3296703,3.49450549 C44.3333431,3.2919985 44.3704739,3.09149224 44.4395604,2.9010989 C44.5207644,2.6744744 44.6513959,2.46876724 44.821978,2.2989011 C45.028822,2.10349473 45.2744225,1.95373833 45.5428571,1.85934066 C45.904838,1.72918095 46.2880159,1.66805141 46.6725275,1.67912088 C47.1146259,1.67149463 47.5519967,1.77103419 47.9472527,1.96923077 C48.3037714,2.14043316 48.607487,2.4046658 48.8263736,2.73406593 L50.1450549,1.52967033 C49.7412792,1.01035603 49.1895372,0.625669229 48.5626374,0.426373626 C47.9508749,0.243352498 47.315472,0.151522706 46.6769231,0.153846154 C46.0501041,0.125510573 45.4239383,0.222648466 44.8351648,0.43956044 C44.3643951,0.631855233 43.9347104,0.912343824 43.5692308,1.26593407 C42.9794489,1.84790672 42.6376501,2.63546148 42.6153846,3.46373626 C42.5817908,4.11273476 42.7342942,4.75782422 43.0549451,5.32307692 C43.3330234,5.76542363 43.7071038,6.13950411 44.1494505,6.41758242 C44.5947377,6.69345318 45.0752812,6.90784953 45.578022,7.05494505 C46.0937729,7.20732601 46.5699634,7.36556777 47.0065934,7.52967033 C47.402385,7.67211158 47.7721295,7.87851514 48.1010989,8.14065934 C48.4027954,8.40920876 48.5647798,8.80121105 48.5406593,9.2043956 C48.5500365,9.5121142 48.4739618,9.81641285 48.3208791,10.0835165 C48.1746951,10.3319967 47.9786369,10.5475111 47.7450549,10.7164835 L47.7450549,10.7164835 Z" id="Shape"></path>
                <polygon id="Shape" points="61.0945055 10.9230769 54.6505495 10.9230769 54.6505495 7.06373626 60.3604396 7.06373626 60.3604396 5.53406593 54.6505495 5.53406593 54.6505495 1.94725275 60.7868132 1.94725275 60.7868132 0.417582418 53.0197802 0.417582418 53.0197802 12.4527473 61.0945055 12.4527473"></polygon>
                <polygon id="Shape" points="72.5494505 10.3076923 72.5142857 10.3076923 65.8857143 0.417582418 63.7450549 0.417582418 63.7450549 12.4527473 65.3758242 12.4527473 65.3758242 2.55824176 65.410989 2.55824176 72.1054945 12.4527473 74.1802198 12.4527473 74.1802198 0.417582418 72.5494505 0.417582418"></polygon>
                <path d="M80.4659341,12.7472527 C81.0197104,12.7507027 81.5704032,12.6646105 82.0967033,12.4923077 C82.5789599,12.3358325 83.0266426,12.0881148 83.4153846,11.7626374 C83.788725,11.438559 84.0884642,11.0384071 84.2945055,10.589011 C84.5204693,10.0987599 84.633146,9.56392141 84.6241758,9.02417582 C84.6591474,8.42235933 84.5054883,7.82462546 84.1846154,7.31428571 C83.8977613,6.90857533 83.5237982,6.57215877 83.0901099,6.32967033 C82.6394871,6.08170145 82.1595543,5.89120503 81.6615385,5.76263736 C81.1774905,5.64299148 80.7005482,5.49624001 80.232967,5.32307692 C79.8297462,5.17240683 79.4584581,4.94724818 79.1384615,4.65934066 C78.8295839,4.3498038 78.6693579,3.92200052 78.6989011,3.48571429 C78.7025739,3.28320729 78.7397047,3.08270103 78.8087912,2.89230769 C78.8899952,2.66568319 79.0206267,2.45997603 79.1912088,2.29010989 C79.3980528,2.09470352 79.6436533,1.94494712 79.9120879,1.85054945 C80.2740688,1.72038974 80.6572466,1.6592602 81.0417582,1.67032967 C81.4838567,1.66270342 81.9212275,1.76224298 82.3164835,1.96043956 C82.6730021,2.13164195 82.9767178,2.39587459 83.1956044,2.72527473 L84.5142857,1.52087912 C84.11051,1.00156482 83.558768,0.61687802 82.9318681,0.417582418 C82.3201056,0.234561289 81.6847027,0.142731497 81.0461538,0.145054945 C80.4104782,0.128360612 79.778,0.240502134 79.1868132,0.474725275 C78.7160434,0.667020068 78.2863588,0.947508659 77.9208791,1.3010989 C77.3310972,1.88307155 76.9892984,2.67062631 76.967033,3.4989011 C76.9334391,4.1478996 77.0859425,4.79298905 77.4065934,5.35824176 C77.6846717,5.80058847 78.0587522,6.17466894 78.5010989,6.45274725 C78.9463861,6.72861802 79.4269296,6.94301436 79.9296703,7.09010989 C80.4454212,7.24249084 80.9216117,7.4007326 81.3582418,7.56483516 C81.7540333,7.70727641 82.1237778,7.91367997 82.4527473,8.17582418 C82.7544438,8.44437359 82.9164282,8.83637589 82.8923077,9.23956044 C82.9016848,9.54727904 82.8256102,9.85157768 82.6725275,10.1186813 C82.5284205,10.364726 82.3354437,10.5786461 82.1054945,10.7472527 C81.8712687,10.9178352 81.6096328,11.0471665 81.3318681,11.1296703 C81.0626573,11.2125087 80.7827615,11.2554557 80.5010989,11.2571429 C80.0104634,11.2560761 79.525957,11.1480746 79.0813187,10.9406593 C78.6201141,10.728672 78.2284255,10.3903262 77.9516484,9.96483516 L76.610989,11.1208791 C77.025479,11.6923002 77.5986393,12.1294305 78.2593407,12.378022 C78.9647518,12.6401035 79.7136297,12.7654137 80.4659341,12.7472527 L80.4659341,12.7472527 Z" id="Shape"></path>
                <path d="M99.1956044,6.43516484 C99.1998939,5.58621812 99.0401933,4.7444317 98.7252747,3.95604396 C98.4293305,3.21003488 97.9903186,2.52911852 97.432967,1.95164835 C96.869949,1.38240725 96.1969438,0.933737121 95.4549451,0.632967033 C93.8286828,-0.0121979164 92.0174711,-0.0121979164 90.3912088,0.632967033 C89.6492101,0.933737121 88.9762049,1.38240725 88.4131868,1.95164835 C87.8558353,2.52911852 87.4168234,3.21003488 87.1208791,3.95604396 C86.4977313,5.56370543 86.4977313,7.34618468 87.1208791,8.95384615 C87.4168234,9.69985523 87.8558353,10.3807716 88.4131868,10.9582418 C88.9764397,11.5271979 89.6493828,11.9758266 90.3912088,12.2769231 C92.0174711,12.922088 93.8286828,12.922088 95.4549451,12.2769231 C96.1967711,11.9758266 96.8697141,11.5271979 97.432967,10.9582418 C97.9903186,10.3807716 98.4293305,9.69985523 98.7252747,8.95384615 C99.0452403,8.15311792 99.2050335,7.29740307 99.1956044,6.43516484 Z M97.1428571,8.29450549 C96.9396708,8.85696803 96.6274792,9.37380199 96.2241758,9.81538462 C95.3712521,10.7290674 94.1773906,11.2477991 92.9274725,11.2477991 C91.6775544,11.2477991 90.483693,10.7290674 89.6307692,9.81538462 C89.2269059,9.37422071 88.9146431,8.85726884 88.7120879,8.29450549 C88.2802847,7.09104032 88.2802847,5.77489375 88.7120879,4.57142857 C88.9146431,4.00866522 89.2269059,3.49171336 89.6307692,3.05054945 C90.4830235,2.13566781 91.6771343,1.61608541 92.9274725,1.61608541 C94.1778108,1.61608541 95.3719216,2.13566781 96.2241758,3.05054945 C96.6279722,3.49343103 96.9401896,4.01180156 97.1428571,4.57582418 C97.5735657,5.77947954 97.5735657,7.09524573 97.1428571,8.2989011 L97.1428571,8.29450549 Z" id="Shape"></path>
                <path d="M110.426374,12.4527473 L107.010989,6.96263736 C107.441385,6.92387533 107.859766,6.79985537 108.241758,6.5978022 C108.594748,6.41218082 108.9118,6.16508815 109.178022,5.86813187 C109.429955,5.58392974 109.628055,5.25624513 109.762637,4.9010989 C109.898131,4.54606929 109.966687,4.16901242 109.964835,3.78901099 C109.96133,3.39471232 109.903647,3.00276637 109.793407,2.62417582 C109.678734,2.22081965 109.472672,1.84930632 109.191209,1.53846154 C108.861366,1.18729952 108.457447,0.914015766 108.008791,0.738461538 C107.401383,0.515908154 106.756295,0.414366482 106.10989,0.43956044 L101.876923,0.43956044 L101.876923,12.4527473 L103.507692,12.4527473 L103.507692,7.14725275 L105.327473,7.14725275 L108.404396,12.4483516 L110.426374,12.4527473 Z M105.652747,5.71428571 L103.512088,5.71428571 L103.512088,1.84615385 L105.652747,1.84615385 C105.969263,1.84559157 106.285308,1.87058115 106.597802,1.92087912 C106.889004,1.96551791 107.17016,2.06072409 107.428571,2.2021978 C107.67341,2.33971402 107.875671,2.54197413 108.013187,2.78681319 C108.307293,3.41643206 108.307293,4.1440075 108.013187,4.77362637 C107.875309,5.01819076 107.673136,5.22036346 107.428571,5.35824176 C107.17016,5.49971547 106.889004,5.59492165 106.597802,5.63956044 C106.285352,5.69022477 105.969277,5.71521672 105.652747,5.71428571 Z" id="Shape"></path>
                <path d="M119.195604,7.32747253 C118.90875,6.92176214 118.534787,6.58534558 118.101099,6.34285714 C117.650476,6.09488826 117.170543,5.90439184 116.672527,5.77582418 C116.188479,5.6561783 115.711537,5.50942682 115.243956,5.33626374 C114.840735,5.18559365 114.469447,4.96043499 114.149451,4.67252747 C113.840573,4.36299061 113.680347,3.93518734 113.70989,3.4989011 C113.713563,3.29639411 113.750694,3.09588784 113.81978,2.90549451 C113.900984,2.67887 114.031616,2.47316284 114.202198,2.3032967 C114.409042,2.10789033 114.654642,1.95813393 114.923077,1.86373626 C115.285058,1.73357656 115.668236,1.67244702 116.052747,1.68351648 C116.494846,1.67589023 116.932217,1.7754298 117.327473,1.97362637 C117.683991,2.14482877 117.987707,2.4090614 118.206593,2.73846154 L119.525275,1.53406593 C119.121499,1.01475164 118.569757,0.630064834 117.942857,0.430769231 C117.331095,0.247748102 116.695692,0.15591831 116.057143,0.158241758 C115.421467,0.141547426 114.788989,0.253688948 114.197802,0.487912088 C113.727083,0.680302868 113.297415,0.960780193 112.931868,1.31428571 C112.342086,1.89625836 112.000287,2.68381313 111.978022,3.51208791 C111.944428,4.16108641 112.096932,4.80617587 112.417582,5.37142857 C112.695661,5.81377528 113.069741,6.18785575 113.512088,6.46593407 C113.957375,6.74180483 114.437919,6.95620118 114.940659,7.1032967 C115.45641,7.25567766 115.932601,7.41391941 116.369231,7.57802198 C116.765022,7.72046323 117.134767,7.92686678 117.463736,8.18901099 C117.765433,8.4575604 117.927417,8.8495627 117.903297,9.25274725 C117.912674,9.56046585 117.836599,9.8647645 117.683516,10.1318681 C117.539409,10.3779129 117.346433,10.5918329 117.116484,10.7604396 C116.882258,10.931022 116.620622,11.0603534 116.342857,11.1428571 C116.073646,11.2256955 115.793751,11.2686425 115.512088,11.2703297 C115.021452,11.2692629 114.536946,11.1612614 114.092308,10.9538462 C113.62678,10.7294618 113.236014,10.3753295 112.967033,9.93406593 L111.626374,11.0901099 C112.040864,11.661531 112.614024,12.0986613 113.274725,12.3472527 C113.974752,12.6217324 114.720625,12.7604647 115.472527,12.756044 C116.026304,12.7594939 116.576997,12.6734018 117.103297,12.5010989 C117.585553,12.3446238 118.033236,12.096906 118.421978,11.7714286 C118.795318,11.4473502 119.095058,11.0471983 119.301099,10.5978022 C119.527063,10.1075511 119.639739,9.57271262 119.630769,9.03296703 C119.666126,8.43309348 119.514049,7.8370721 119.195604,7.32747253 Z" id="Shape"></path>
                <path d="M47.0021978,17.4065934 L41.7010989,29.4505495 L43.6043956,29.4505495 L44.7956044,26.4747253 L50.5098901,26.4747253 L51.7142857,29.4505495 L53.6263736,29.4505495 L48.4835165,17.4065934 L47.0021978,17.4065934 Z M45.3714286,25.0549451 L47.6483516,19.5340659 L47.6835165,19.5340659 L49.9252747,25.0549451 L45.3714286,25.0549451 Z" id="Shape"></path>
                <path d="M61.4065934,21.9076923 C61.1387463,21.6568525 60.8191531,21.4677974 60.4703297,21.3538462 C60.1118958,21.2337164 59.73627,21.1728442 59.3582418,21.1736264 C58.7834185,21.161925 58.2154157,21.2997604 57.7098901,21.5736264 C57.2674986,21.80297 56.913534,22.1723915 56.7032967,22.6241758 L56.6681319,22.6241758 L56.6681319,21.3802198 L55.1384615,21.3802198 L55.1384615,29.4505495 L56.6681319,29.4505495 L56.6681319,25.2923077 C56.6600959,24.8827922 56.7179779,24.4746497 56.8395604,24.0835165 C56.9361604,23.7730286 57.0980189,23.4867789 57.3142857,23.243956 C57.5100164,23.0286756 57.7540753,22.8629566 58.0263736,22.7604396 C58.3078203,22.6568658 58.6056005,22.6047543 58.9054945,22.6065934 C59.1399553,22.6057255 59.3730091,22.642836 59.5956044,22.7164835 C59.8147408,22.7897571 60.0145578,22.9114502 60.1802198,23.0725275 C60.362233,23.255317 60.5017963,23.4759172 60.589011,23.7186813 C60.697963,24.0261267 60.7500933,24.3508236 60.7428571,24.6769231 L60.7428571,29.4505495 L62.2725275,29.4505495 L62.2725275,24.2549451 C62.2831846,23.7824369 62.2025913,23.3123092 62.0351648,22.8703297 C61.8977073,22.5077772 61.6832544,22.1793494 61.4065934,21.9076923 Z" id="Shape"></path>
                <path d="M71.5252747,27.9736264 L71.5252747,23.8637363 C71.5265912,23.5174222 71.4609164,23.174122 71.3318681,22.8527473 C71.2010467,22.5174894 70.9950256,22.2167286 70.7296703,21.9736264 C70.4251933,21.7063762 70.0691394,21.5044128 69.6835165,21.3802198 C69.1922149,21.2232893 68.678267,21.1490194 68.1626374,21.1604396 C67.5827709,21.1630411 67.0075583,21.264112 66.4615385,21.4593407 C65.9083104,21.6466966 65.3995809,21.9459493 64.967033,22.3384615 L65.8857143,23.2923077 L66.3252747,22.9714286 C66.4779737,22.8541217 66.6430604,22.7538905 66.8175824,22.6725275 C67.0113956,22.5838187 67.2129833,22.5131894 67.4197802,22.4615385 C67.6731929,22.401716 67.9330651,22.3736616 68.1934066,22.378022 C68.4828566,22.3717863 68.7708239,22.4210242 69.0417582,22.5230769 C69.2649003,22.610241 69.4671158,22.7435534 69.6351648,22.9142857 C69.7899801,23.0730026 69.91109,23.2613958 69.9912088,23.4681319 C70.0684998,23.6626191 70.1087516,23.8698414 70.1098901,24.0791209 L70.1098901,24.4175824 L68.989011,24.4175824 C68.411504,24.415172 67.8349102,24.4637118 67.2659341,24.5626374 C66.7673251,24.6471451 66.2861138,24.8134898 65.8417582,25.0549451 C65.4571834,25.2645973 65.1308795,25.5667305 64.8923077,25.9340659 C64.4786238,26.6531811 64.4313069,27.526096 64.7648352,28.2857143 C64.9107467,28.5681831 65.1162049,28.8156327 65.367033,29.010989 C65.6299407,29.211302 65.9281588,29.360411 66.2461538,29.4505495 C66.5941938,29.5541056 66.9555652,29.6059416 67.3186813,29.6043956 C67.8733565,29.6161339 68.4239062,29.506624 68.9318681,29.2835165 C69.4296003,29.037061 69.8472252,28.6544922 70.1362637,28.1802198 L70.1714286,28.1802198 C70.1714286,28.5875458 70.189011,28.9948718 70.2241758,29.4021978 L71.5824176,29.4021978 C71.5589744,29.1882784 71.5413919,28.9611722 71.5296703,28.7208791 C71.5179487,28.4805861 71.5164835,28.2315018 71.5252747,27.9736264 Z M70.0967033,26.0703297 C70.0959958,26.3499832 70.0560457,26.6281537 69.978022,26.8967033 C69.8996596,27.1724107 69.7666157,27.4295292 69.5868132,27.6527473 C69.3944026,27.888852 69.1509278,28.0782212 68.8747253,28.2065934 C68.5377308,28.3569962 68.1710513,28.4291299 67.8021978,28.4175824 C67.3593302,28.4397392 66.9195545,28.3328493 66.5362637,28.1098901 C66.2134828,27.8827013 66.0359848,27.5009132 66.0703297,27.1076923 C66.0603073,26.8172388 66.1681042,26.5350646 66.3692308,26.3252747 C66.584885,26.1110905 66.8464251,25.9487553 67.1340659,25.8505495 C67.4693421,25.7327038 67.8176725,25.6559531 68.1714286,25.621978 C68.5408105,25.5822418 68.9120056,25.5617014 69.2835165,25.5604396 L70.1010989,25.5604396 L70.0967033,26.0703297 Z" id="Shape"></path>
                <rect id="Rectangle-path" x="74.210989" y="16.589011" width="1.52967033" height="12.8483516"></rect>
                <path d="M81.7582418,27.6703297 L81.7230769,27.6703297 L79.3362637,21.3802198 L77.578022,21.3802198 L80.8791209,29.4901099 L80.3824176,30.7648352 C80.3032967,30.967033 80.2241758,31.1516484 80.1450549,31.3098901 C80.0701571,31.4641198 79.9706921,31.6051523 79.8505495,31.7274725 C79.7261173,31.8498705 79.5759514,31.9429733 79.410989,32 C79.2189055,32.0665146 79.0163869,32.0977859 78.8131868,32.0923077 C78.4989906,32.0897603 78.1883521,32.0255418 77.8989011,31.9032967 L77.7142857,33.2967033 C77.9275883,33.3873915 78.1524431,33.4480431 78.3824176,33.4769231 C78.6099004,33.5053167 78.8388857,33.5199952 79.0681319,33.5208791 C79.4288265,33.5300075 79.7880662,33.4718733 80.1274725,33.3494505 C80.4040705,33.2445013 80.6556237,33.0827886 80.8659341,32.8747253 C81.0777362,32.6573556 81.254229,32.4081893 81.389011,32.1362637 C81.5517529,31.8245432 81.6984642,31.5047125 81.8285714,31.178022 L85.6527473,21.389011 L84.021978,21.389011 L81.7582418,27.6703297 Z" id="Shape"></path>
                <path d="M90.6285714,28.2153846 C90.3930731,28.2308209 90.158466,28.1740859 89.956044,28.0527473 C89.8027148,27.9424278 89.6850516,27.7896185 89.6175824,27.6131868 C89.5410141,27.4242695 89.4978808,27.2234762 89.4901099,27.0197802 C89.4901099,26.8 89.4901099,26.5802198 89.4901099,26.3472527 L89.4901099,22.7076923 L91.6879121,22.7076923 L91.6879121,21.389011 L89.4901099,21.389011 L89.4901099,19.1208791 L87.9604396,19.1208791 L87.9604396,21.3802198 L86.2021978,21.3802198 L86.2021978,22.6989011 L87.9604396,22.6989011 L87.9604396,26.8967033 C87.9604396,27.2249084 87.9750916,27.5501832 88.0043956,27.8725275 C88.0281247,28.1823042 88.1212686,28.4827685 88.2769231,28.7516484 C88.44754,29.0285909 88.6949238,29.2500146 88.989011,29.389011 C89.4199697,29.5741877 89.8875606,29.6583841 90.356044,29.6351648 C90.5813006,29.6289788 90.8059329,29.6084242 91.0285714,29.5736264 C91.2740559,29.5475023 91.5125421,29.4759564 91.7318681,29.3626374 L91.7318681,27.9736264 C91.5684536,28.066999 91.3899222,28.1309727 91.2043956,28.1626374 C91.0144492,28.1976329 90.8217147,28.215288 90.6285714,28.2153846 Z" id="Shape"></path>
                <path d="M94.8615385,17.3714286 C94.3194177,17.3674946 93.8503298,17.7478048 93.7420803,18.2790227 C93.6338307,18.8102406 93.9166976,19.3437812 94.4171299,19.5522947 C94.9175623,19.7608082 95.4955861,19.585972 95.7965593,19.1350556 C96.0975324,18.6841392 96.0372707,18.0832667 95.6527473,17.7010989 C95.4459877,17.4864651 95.1595293,17.3671074 94.8615385,17.3714286 Z" id="Shape"></path>
                <rect id="Rectangle-path" x="94.0967033" y="21.3802198" width="1.52967033" height="8.05714286"></rect>
                <path d="M100.272527,23.4813187 C100.482525,23.2165184 100.750105,23.0030555 101.054945,22.8571429 C101.397317,22.697702 101.771883,22.6194792 102.149451,22.6285714 C102.532781,22.6183486 102.913314,22.6965611 103.261538,22.8571429 C103.591419,23.0285515 103.888909,23.2561311 104.140659,23.5296703 L105.296703,22.4747253 C104.909372,22.0515472 104.429489,21.7236016 103.894505,21.5164835 C103.354871,21.3075838 102.780849,21.2017253 102.202198,21.2043956 C101.613058,21.195975 101.027882,21.3019635 100.479121,21.5164835 C99.4687223,21.9053799 98.6702151,22.7038871 98.2813187,23.7142857 C98.0722201,24.2613797 97.967843,24.8429089 97.9736264,25.4285714 C97.9668098,26.0128916 98.0712307,26.5931731 98.2813187,27.1384615 C98.4783612,27.6349553 98.7779233,28.0842983 99.1604396,28.4571429 C99.5362007,28.8361322 99.984761,29.1351724 100.479121,29.3362637 C101.024409,29.5463518 101.604691,29.6507726 102.189011,29.643956 C102.760004,29.6468982 103.327004,29.5486777 103.863736,29.3538462 C104.396997,29.1573308 104.872876,28.8310141 105.248352,28.4043956 L104.175824,27.3142857 C103.938786,27.5907918 103.650769,27.8191165 103.327473,27.9868132 C102.982427,28.1475865 102.604696,28.2258416 102.224176,28.2153846 C101.855761,28.221783 101.490187,28.1498669 101.151648,28.0043956 C100.841239,27.8688378 100.562715,27.6696782 100.334066,27.4197802 C100.103334,27.1633943 99.9242364,26.8648987 99.8065934,26.5406593 C99.6801568,26.2003257 99.6161286,25.839981 99.6175824,25.4769231 C99.6168653,25.111778 99.6717052,24.7486489 99.7802198,24.4 C99.8859517,24.0659013 100.052892,23.7543783 100.272527,23.4813187 Z" id="Shape"></path>
                <path d="M111.947253,25.4945055 C111.724841,25.3067497 111.472166,25.1581176 111.2,25.0549451 C110.897676,24.9376154 110.587823,24.8406946 110.272527,24.7648352 L109.661538,24.6461538 C109.437805,24.601213 109.219658,24.5319366 109.010989,24.4395604 C108.809242,24.3548653 108.624559,24.2342254 108.465934,24.0835165 C108.311936,23.9324058 108.228925,23.7232812 108.237363,23.5076923 C108.230141,23.2252137 108.385702,22.9636677 108.637363,22.8351648 C108.926608,22.6766971 109.252724,22.5978225 109.582418,22.6065934 C109.922105,22.5959248 110.258628,22.67475 110.558242,22.8351648 C110.816531,22.9814064 111.044739,23.1753091 111.230769,23.4065934 L112.421978,22.5274725 C112.144497,22.0541073 111.717815,21.6861717 111.208791,21.4813187 C110.712405,21.2771258 110.180699,21.1725768 109.643956,21.1736264 C109.268006,21.1743465 108.893894,21.2261011 108.531868,21.3274725 C108.180762,21.4160928 107.847642,21.5648073 107.547253,21.767033 C107.259137,21.969142 107.020256,22.2335638 106.848352,22.5406593 C106.666902,22.8764079 106.576007,23.2536192 106.584615,23.6351648 C106.573338,23.969073 106.642696,24.3007813 106.786813,24.6021978 C106.917,24.8562267 107.103413,25.0772157 107.331868,25.2483516 C107.569653,25.424755 107.833678,25.5627009 108.114286,25.6571429 C108.407326,25.759707 108.719414,25.8505495 109.050549,25.9296703 L109.635165,26.0571429 C109.850344,26.1054972 110.060721,26.1731709 110.263736,26.2593407 C110.455344,26.3395852 110.628773,26.4576967 110.773626,26.6065934 C110.916465,26.7583164 110.992471,26.9609976 110.984615,27.1692308 C110.984311,27.3274601 110.933492,27.4814588 110.83956,27.6087912 C110.739512,27.7413463 110.612079,27.8507893 110.465934,27.9296703 C110.301039,28.0197883 110.123064,28.0835625 109.938462,28.1186813 C109.74609,28.1583817 109.550268,28.1789945 109.353846,28.1802198 C108.960178,28.1925754 108.571209,28.0919011 108.232967,27.8901099 C107.930675,27.7007335 107.650541,27.4781008 107.397802,27.2263736 L106.241758,28.1802198 C106.576792,28.6737003 107.044633,29.0622982 107.591209,29.3010989 C108.152013,29.5159084 108.749026,29.6203857 109.349451,29.6087912 C109.747488,29.6084682 110.144191,29.5627516 110.531868,29.4725275 C110.904279,29.3904159 111.258725,29.241489 111.578022,29.032967 C111.883506,28.8288631 112.138946,28.5583976 112.325275,28.2417582 C112.526489,27.8872392 112.626818,27.4844033 112.615385,27.0769231 C112.624161,26.7497492 112.562707,26.4244947 112.435165,26.1230769 C112.318406,25.8816563 112.15217,25.6674959 111.947253,25.4945055 L111.947253,25.4945055 Z" id="Shape"></path>
            </g>
        </g>
    </g>
</svg>